<?xml version="1.0" encoding="UTF-8" standalone="no"?>
<!-- Generator: Adobe Illustrator 27.5.0, SVG Export Plug-In . SVG Version: 6.00 Build 0)  -->

<svg
   version="1.1"
   id="Layer_1"
   x="0px"
   y="0px"
   viewBox="0 0 4000 4000"
   style="enable-background:new 0 0 4000 4000;"
   xml:space="preserve"
   sodipodi:docname="13038029_2_-10.svg"
   inkscape:version="1.4.2 (ebf0e940, 2025-05-08)"
   xmlns:inkscape="http://www.inkscape.org/namespaces/inkscape"
   xmlns:sodipodi="http://sodipodi.sourceforge.net/DTD/sodipodi-0.dtd"
   xmlns="http://www.w3.org/2000/svg"
   xmlns:svg="http://www.w3.org/2000/svg"><defs
   id="defs91" /><sodipodi:namedview
   id="namedview91"
   pagecolor="#505050"
   bordercolor="#eeeeee"
   borderopacity="1"
   inkscape:showpageshadow="0"
   inkscape:pageopacity="0"
   inkscape:pagecheckerboard="0"
   inkscape:deskcolor="#505050"
   inkscape:zoom="0.208"
   inkscape:cx="1997.5962"
   inkscape:cy="2000"
   inkscape:window-width="2560"
   inkscape:window-height="1257"
   inkscape:window-x="0"
   inkscape:window-y="31"
   inkscape:window-maximized="1"
   inkscape:current-layer="g91" />
<g
   id="g91">
	
	<g
   id="g90">
		<g
   id="g2">
			<circle
   style="fill:#0BCBFF;"
   cx="2009.196"
   cy="1985.804"
   r="1290.803"
   id="circle1" />
		</g>
		<g
   id="g89">
			<g
   style="opacity:0.3;"
   id="g3">
				<ellipse
   style="fill:#000072;"
   cx="2012.5"
   cy="3296.009"
   rx="1632.5"
   ry="88.991"
   id="ellipse2" />
			</g>
			<g
   id="g4">
				<path
   style="fill:#000072;"
   d="M3565.178,3256.383c-260.863,11.816-521.726,17.926-782.589,21.849      c-65.216,1.277-130.431,1.865-195.647,2.494l-195.647,1.915c-130.432,0.742-260.863,1.144-391.295,0.927      c-130.432-0.226-260.863-0.585-391.295-1.943c-130.431-1.339-260.863-2.31-391.294-4.792      c-260.863-4.241-521.726-10.194-782.589-21.437c-2.556-0.11-4.537-2.271-4.428-4.825c0.104-2.416,2.058-4.319,4.428-4.427      c260.863-11.243,521.726-17.196,782.589-21.437c130.431-2.483,260.863-3.453,391.294-4.794      c130.432-1.357,260.863-1.716,391.295-1.943c130.432-0.216,260.863,0.186,391.295,0.928l195.647,1.914      c65.216,0.63,130.431,1.218,195.647,2.495c260.863,3.923,521.726,10.033,782.589,21.849c3.101,0.14,5.5,2.767,5.36,5.868      C3570.406,3253.944,3568.042,3256.245,3565.178,3256.383z"
   id="path3" />
			</g>
			<g
   id="g11">
				<g
   id="g5">
					<path
   style="fill:#FA9B27;"
   d="M3470.17,1831.39c-34.211,146.339-175.626,239.582-321.785,216.148       c-6.623-1.057-13.308-2.375-19.939-3.925c-29.954-7.003-57.63-18.503-82.578-33.536c-0.045-0.072-0.045-0.072-0.045-0.072       c-102.603-62.019-158.417-185.115-129.658-308.13c35.775-153.027,188.769-248.042,341.796-212.267       C3410.931,1525.369,3505.945,1678.362,3470.17,1831.39z"
   id="path4" />
				</g>
				<g
   id="g6">
					<path
   style="fill:#FFFFFF;"
   d="M3209.448,1539.612c152.988,35.766,248.015,188.78,212.25,341.768       c-9.334,39.927-26.712,75.855-49.934,106.592c47.677-38.408,83.412-92.362,98.429-156.597       c35.765-152.988-59.262-306.003-212.25-341.768c-113.061-26.431-226.078,18.621-291.834,105.658       C3031.982,1542.197,3120.695,1518.864,3209.448,1539.612z"
   id="path5" />
				</g>
				<g
   id="g7">
					<path
   style="fill:#FFFFFF;"
   d="M3339.921,1811.798c0,0-43.994-76.044-105.844-41.859       c-49.164,27.152-83.193,174.024-85.692,277.599c-6.623-1.057-13.308-2.375-19.939-3.925       c-29.954-7.003-57.63-18.503-82.578-33.536c-0.045-0.072-0.045-0.072-0.045-0.072s6.647-385.024,267.804-316.119       C3313.628,1693.886,3369.859,1717.582,3339.921,1811.798z"
   id="path6" />
				</g>
				<g
   style="opacity:0.3;"
   id="g8">
					<path
   style="fill:#000072;"
   d="M3457.179,1660.78c3.188,30.703,1.475,62.438-5.949,94.19       c-34.211,146.339-175.626,239.582-321.785,216.148c-6.623-1.057-13.308-2.375-19.939-3.925       c-29.954-7.003-57.63-18.503-82.578-33.536c-0.045-0.072-0.045-0.072-0.045-0.072c-53.32-32.229-93.958-80.973-116.704-137.608       c9.156,88.315,59.492,167.998,135.644,214.027c0,0,0,0,0.045,0.072c24.948,15.034,52.624,26.534,82.578,33.536       c6.631,1.55,13.316,2.867,19.939,3.925c146.159,23.434,287.574-69.809,321.785-216.148       C3483.996,1772.25,3478.218,1713.145,3457.179,1660.78z"
   id="path7" />
				</g>
				<g
   id="g9">
					<path
   style="fill:#000072;"
   d="M3025.077,2009.261c0.554-14.032,1.655-26.84,3.177-40.12       c1.508-13.157,3.369-26.257,5.577-39.321c4.446-26.125,10.568-52.04,18.573-77.615c7.953-25.559,18.002-50.813,31.204-74.923       c13.186-24.054,29.963-47.018,51.233-66.398c5.593-4.581,10.876-9.479,17.023-13.462c3.019-2.039,5.898-4.26,9.05-6.116       l9.553-5.43c3.121-1.915,6.548-3.291,9.893-4.81c3.381-1.436,6.666-3.115,10.14-4.307c6.917-2.229,14.126-4.908,20.679-6.274       c13.278-3.466,27.159-5.853,41.466-6.931c14.287-0.933,29.293-0.669,44.414,3.237c14.995,3.811,30.306,11.248,41.914,23.022       c11.766,11.595,19.293,26.475,22.758,41.222c3.37,14.852,3.162,29.694,0.244,43.65c-1.426,6.985-3.622,13.781-6.619,20.231       c-2.998,6.418-6.755,12.643-12.026,17.727c-1.559,1.504-4.041,1.459-5.544-0.1c-1.002-1.039-1.316-2.487-0.955-3.782       l0.112-0.393c3.248-11.506,3.579-23.73,2.55-35.36c-0.516-5.817-1.448-11.521-2.709-16.991       c-1.387-5.444-3.052-10.692-5.176-15.533c-2.18-4.799-4.583-9.333-7.52-13.256c-3.014-3.849-6.178-7.404-9.929-10.175       c-7.262-5.8-16.216-9.204-26.105-11.265c-9.938-1.913-20.935-2.296-32.201-1.16c-11.268,1.106-22.815,3.08-34.342,6.293       c-6.028,1.339-10.809,3.387-16.127,5.054c-2.598,0.894-5.015,2.246-7.538,3.324c-2.489,1.163-5.06,2.147-7.384,3.669       l-7.162,4.153c-2.375,1.407-4.55,3.196-6.843,4.757c-4.669,3.004-8.738,6.996-13.083,10.54       c-16.555,15.437-30.513,34.541-41.757,55.61c-11.215,21.101-20.588,43.673-27.845,67.175       c-7.468,23.43-12.964,47.667-17.578,72.108c-2.227,12.24-4.136,24.557-5.709,36.903c-1.525,12.225-2.909,25.004-3.627,36.63       l-0.032,0.526c-0.712,11.523-10.629,20.287-22.151,19.576C3033.318,2030.249,3024.64,2020.575,3025.077,2009.261z"
   id="path8" />
				</g>
				<g
   id="g10">
					<path
   style="fill:#000072;"
   d="M3193.196,2072.035c-22.949,0-46.24-2.607-69.531-8.052       c-79.429-18.569-146.87-66.958-189.907-136.255s-56.509-151.201-37.939-230.63s66.958-146.875,136.255-189.907       c69.292-43.042,151.191-56.523,230.63-37.939c79.429,18.569,146.875,66.958,189.907,136.255       c43.037,69.292,56.509,151.201,37.939,230.63C3457.664,1976.81,3331.829,2072.035,3193.196,2072.035z M3193.167,1503.016       c-119.663,0-228.247,82.173-256.636,203.604c-16.025,68.55-4.399,139.243,32.744,199.048       c37.144,59.809,95.356,101.577,163.911,117.602c20.088,4.697,40.21,6.948,60.01,6.948       c119.663,0.01,228.252-82.178,256.641-203.604c16.025-68.555,4.399-139.243-32.744-199.053       c-37.144-59.805-95.356-101.567-163.911-117.598C3233.094,1505.267,3212.967,1503.016,3193.167,1503.016z"
   id="path9" />
				</g>
			</g>
			<g
   id="g24">
				<g
   id="g12">
					<path
   style="fill:#FA9B27;"
   d="M3337.9,3181.35c-3.1,11.4-8.5,21.7-15.6,30.4c-15.7,19.25-39.6,31.1-65.6,31.1h-414.5       c-25.7,0-48.55-16.9-55.5-41.7c-5.45-19.4-9.5-44.1-6.75-70.95v-0.05c4-39.4,22.65-83.35,72.85-121.7l-0.45,0.3       c-13.05,8.3-174.7,107.8-386.35,82.95h-0.1c-104.45-12.2-221.1-54.75-338.05-153.5c-38.95-32.9-78-72.05-116.6-118.4       c-359.05-431-33.4-839.1-33.4-839.1s529.3-651.4,1114.3-152.15c0,0,89.75,66.7,159.45,218.65       c59.7,130.25,104.6,323.25,65.45,590.6c-12.25,83.35-7.9,168.35,14.3,249.65C3352.3,2964.2,3367.8,3071.95,3337.9,3181.35z"
   id="path11" />
				</g>
				<g
   id="g13">
					<path
   style="fill:#FFFFFF;"
   d="M3322.3,3211.75c-15.7,19.25-39.6,31.1-65.6,31.1h-414.5c-25.7,0-48.55-16.9-55.5-41.7       c-13.45-47.95-18.3-128.4,66.4-192.9c-6.75,4.4-364.55,234.5-725.25-70.05c117.55,37.2,468.2,127.1,665.65-49.65       c0,0,32.95,75.75,59.7,119.65c0,0,135-100.7,319.3,0C3271.05,3062.05,3308.65,3145.65,3322.3,3211.75z"
   id="path12" />
				</g>
				<g
   style="opacity:0.3;"
   id="g14">
					<path
   style="fill:#000072;"
   d="M3172.45,3008.15c-3.15-1.65-155.4-82.65-319.25,0.05l-0.4,0.25l-0.45,0.3       c-13.05,8.3-174.7,107.8-386.35,82.95h-0.1c0,0,171.05-121.05,168.3-303.15c0,0,0.049,0.026,0.144,0.076       c27.24,14.247,59.411-7.946,55.812-38.475c-10.778-91.429-9.173-289.649,170.044-435.051c-4.65,4.45-214,207.55-40.75,629.55       C2819.45,2944.65,3037.4,2855.3,3172.45,3008.15z"
   id="path13" />
				</g>
				<g
   style="opacity:0.3;"
   id="g15">
					<path
   style="fill:#000072;"
   d="M3337.9,3181.35c-3.1,11.4-8.5,21.7-15.6,30.4c-15.7,19.25-39.6,31.1-65.6,31.1h-414.5       c-25.7,0-48.55-16.9-55.5-41.7c-5.45-19.4-9.5-44.1-6.75-70.95v-0.05h0.05c0,0,50.2,75.75,88.2-17.45       c0,0,12.35,78.75,109.55,77.1c0,0,8.3-58.65,49.55-77.1c0,0,208.75,134.35,243.15-20       c34.35-154.4-66.879-143.295-18.665-494.307c28.698-208.929,17.864-369.043-0.186-551.193       c59.7,130.25,104.6,323.25,65.45,590.6c-12.25,83.35-7.9,168.35,14.3,249.65C3352.3,2964.2,3367.8,3071.95,3337.9,3181.35z"
   id="path14" />
				</g>
				<g
   id="g18">
					<g
   style="opacity:0.7;"
   id="g16">
						<path
   style="fill:#FFFFFF;"
   d="M1992.85,2035.7c0,0,529.3-651.4,1114.3-152.15c0,0,89.75,66.7,159.45,218.65        c13.79,30.085,26.768,63.565,38.125,100.489c-14.166-59.417-32.782-111.104-53.125-155.489        c-69.7-151.95-159.45-218.65-159.45-218.65c-585-499.25-1114.3,152.15-1114.3,152.15s-211.406,265.058-105.594,593.533        C1804.639,2271.672,1992.85,2035.7,1992.85,2035.7z"
   id="path15" />
					</g>
					<g
   style="opacity:0.7;"
   id="g17">
						<path
   style="fill:#FFFFFF;"
   d="M2794.95,3185.2v-0.05c4-39.4,22.65-83.35,72.85-121.7l-0.45,0.3        c-5.293,3.366-35.038,21.736-82.643,40.726c-2.34,8.697-3.906,17.291-4.757,25.674v0.05c-2.75,26.85,1.3,51.55,6.75,70.95        c1.753,6.255,4.522,12.003,8.088,17.108C2793.893,3207.786,2793.771,3196.71,2794.95,3185.2z"
   id="path16" />
					</g>
				</g>
				<g
   id="g19">
					<path
   style="fill:#000072;"
   d="M3256.707,3260.341h-414.482c-33.604,0-63.359-22.388-72.363-54.438       c-9.409-33.511-16.392-88.057,12.28-142.437c-48.857,20.039-117.402,41.274-198.77,47.773       c-150.62,12.026-374.507-26.821-585.586-280.229c-190.068-228.188-189.15-450.259-154.912-596.372       c37.012-157.92,117.881-260.547,121.309-264.839c0.029-0.039,0.063-0.078,0.093-0.117       c2.598-3.193,64.761-79.136,170.562-159.995c97.974-74.873,253.052-167.622,435.483-184.268       c186.128-16.958,365.381,46.768,532.778,189.497c7.622,5.796,83.081,65.176,148.882,193.086       c62.153,120.811,126.895,328.574,82.373,632.319c-12.139,82.817-7.471,164.409,13.872,242.51       c20.391,74.604,38.076,187.759,6.563,303.135C3342.825,3229.76,3302.493,3260.341,3256.707,3260.341z M2853.196,2990.721       c5.498,0,10.908,2.588,14.307,7.402c5.439,7.7,3.809,18.32-3.696,24.023c-74.37,56.548-73.813,125.991-60.244,174.292       c4.775,17.017,20.674,28.901,38.662,28.901h414.482c30.054,0,56.504-19.985,64.321-48.599       c29.429-107.749,12.676-214.287-6.563-284.683c-22.627-82.788-27.583-169.189-14.741-256.816       c42.998-293.364-18.613-493.252-77.866-609.282c-64.131-125.571-139.424-182.793-140.176-183.354       c-0.298-0.225-0.615-0.479-0.903-0.723c-160-136.557-330.64-197.632-507.051-181.631       c-332.031,30.171-577.466,325.625-582.236,331.44c-2.505,3.184-80.278,103.345-114.854,252.285       c-46.611,200.767,3.198,390.737,148.042,564.629c161.348,193.701,347.915,283.789,554.38,267.861       c154.634-11.948,263.477-82.178,264.556-82.886C2846.57,2991.649,2849.9,2990.721,2853.196,2990.721z"
   id="path18" />
				</g>
				<g
   id="g20">
					<path
   style="fill:#000072;"
   d="M2843.374,2993.743c2.057-1.4,3.611-2.316,5.293-3.357c1.681-1.067,3.318-1.965,4.963-2.891       c3.287-1.898,6.586-3.684,9.938-5.258c6.639-3.42,13.457-6.173,20.254-9.066c13.776-5.142,27.723-9.816,42.034-12.905       c14.226-3.43,28.718-5.613,43.228-6.923c7.279-0.447,14.539-1.121,21.805-1.346l21.805,0.333       c3.633-0.048,7.24,0.397,10.85,0.752l10.815,1.08l10.793,1.091c3.573,0.526,7.117,1.26,10.665,1.923l21.208,4.188l20.715,5.952       l10.319,2.982c3.385,1.152,6.705,2.494,10.028,3.816c6.656,2.61,13.209,5.477,19.675,8.459       c3.282,1.371,6.343,3.259,9.377,5.179c3.066,1.838,6.085,3.768,9.045,5.795c5.959,3.956,11.76,8.151,17.202,12.858       c0.868,0.751,0.963,2.063,0.211,2.931c-0.463,0.536-1.139,0.778-1.793,0.707l-0.195-0.022       c-14.515-1.655-27.538-5.773-40.801-8.955c-6.663-1.477-13.239-3.066-19.712-4.916c-3.26-0.842-6.443-1.938-9.707-2.726       l-9.884-1.96l-19.689-3.932l-19.891-2.2c-3.311-0.333-6.595-0.859-9.905-1.115l-9.955-0.336l-9.934-0.349       c-3.307-0.115-6.61-0.325-9.917-0.048c-26.465,0.248-52.65,4.208-78.016,10.637c-12.699,3.208-25.083,7.435-37.229,12.107       c-5.928,2.6-12.036,4.919-17.732,7.85c-2.926,1.376-5.779,2.782-8.534,4.288c-1.399,0.734-2.823,1.461-4.088,2.227l-3.563,2.09       l-0.999,0.586c-8.326,4.885-19.038,2.096-23.923-6.23C2833.456,3009.07,2835.861,2998.883,2843.374,2993.743z"
   id="path19" />
				</g>
				<g
   id="g21">
					<path
   style="fill:#000072;"
   d="M2838.782,3018.112c-5.018-7.094-9.175-13.502-13.435-20.345       c-4.247-6.74-8.287-13.558-12.113-20.49c-7.762-13.805-15.065-27.836-21.705-42.18c-3.364-7.152-6.636-14.347-9.706-21.631       c-3.215-7.225-6.112-14.581-9.039-21.929c-5.713-14.749-10.897-29.707-15.664-44.81c-9.586-30.193-16.73-61.191-21.836-92.549       c-5.098-31.357-7.875-63.174-7.81-95.048c-0.178-7.959,0.355-15.933,0.508-23.894c0.155-3.982,0.167-7.966,0.446-11.942       l0.975-11.92c1.075-15.913,3.679-31.67,5.95-47.434c3.224-15.614,5.851-31.344,10.309-46.655l3.06-11.541       c0.958-3.862,2.061-7.683,3.383-11.44l7.609-22.611c11.4-29.651,24.733-58.617,42.118-85.026       c8.057-13.558,17.82-26.014,27.378-38.431c4.694-6.268,10.017-12.075,15.336-17.842c5.288-5.786,10.624-11.498,16.124-17.03       c1.074-1.08,2.822-1.085,3.903-0.011c0.876,0.872,1.046,2.185,0.505,3.228l-0.029,0.055       c-28.595,55.034-54.022,109.47-71.533,166.477c-8.79,28.455-15.314,57.485-19.717,86.835       c-1.615,14.762-3.604,29.459-4.109,44.307l-0.741,11.096c-0.203,3.7-0.142,7.418-0.228,11.125       c-0.012,7.421-0.417,14.832-0.122,22.253c1.234,59.385,11.361,118.549,28.378,175.806c4.28,14.312,8.958,28.518,14.149,42.546       c2.565,7.026,5.082,14.075,7.922,20.999c2.694,6.986,5.585,13.889,8.564,20.756c5.964,13.727,12.128,27.389,18.895,40.713       c1.649,3.358,3.368,6.67,5.116,9.961c1.689,3.333,3.423,6.63,5.205,9.888c3.462,6.462,7.307,13.208,10.82,18.92l0.322,0.524       c5.062,8.23,2.495,19.006-5.736,24.07C2854.341,3027.765,2844.073,3025.557,2838.782,3018.112z"
   id="path20" />
				</g>
				<g
   id="g22">
					<path
   style="fill:#000072;"
   d="M2869.399,3252.043c-2.142-3.225-3.638-5.632-5.168-8.475c-1.534-2.723-2.878-5.522-4.159-8.325       c-2.615-5.596-4.741-11.377-6.652-17.228c-3.679-11.746-6.073-23.966-6.875-36.353c-1.042-12.329-0.057-24.996,2.954-37.039       c0.754-3.02,1.766-5.98,2.642-8.912c1.049-2.916,2.437-5.743,3.696-8.534c0.638-1.395,1.27-2.781,1.978-4.132l2.488-3.921       c1.711-2.57,3.473-5.06,5.337-7.433c0.983-1.25,2.792-1.467,4.042-0.486c0.696,0.547,1.072,1.348,1.099,2.168l0.009,0.292       c0.345,11.87-0.049,22.379,1.449,32.899c1.348,10.409,2.72,20.47,5.404,30.409c2.638,9.899,5.782,19.635,9.558,29.18       c1.877,4.773,3.857,9.503,5.913,14.175l3.124,6.943l2.936,6.371l0.653,1.418c4.039,8.766,0.208,19.146-8.557,23.184       C2883.335,3261.901,2874.08,3259.104,2869.399,3252.043z"
   id="path21" />
				</g>
				<g
   id="g23">
					<path
   style="fill:#000072;"
   d="M3028.506,3252.043c-2.141-3.225-3.636-5.632-5.167-8.475c-1.534-2.723-2.88-5.522-4.159-8.325       c-2.615-5.596-4.742-11.377-6.652-17.228c-3.679-11.746-6.074-23.966-6.875-36.353c-1.042-12.329-0.057-24.996,2.954-37.039       c0.754-3.02,1.766-5.98,2.64-8.912c1.049-2.916,2.437-5.743,3.696-8.534c0.64-1.395,1.271-2.781,1.979-4.132l2.488-3.921       c1.711-2.57,3.472-5.06,5.336-7.433c0.983-1.25,2.793-1.467,4.043-0.486c0.695,0.547,1.071,1.348,1.099,2.168l0.009,0.292       c0.344,11.87-0.049,22.379,1.448,32.899c1.349,10.409,2.72,20.47,5.405,30.409c2.638,9.899,5.781,19.635,9.557,29.18       c1.879,4.773,3.857,9.503,5.913,14.175l3.125,6.943l2.935,6.371l0.654,1.418c4.038,8.766,0.208,19.146-8.558,23.184       C3042.443,3261.901,3033.186,3259.104,3028.506,3252.043z"
   id="path22" />
				</g>
			</g>
			<g
   id="g32">
				<g
   id="g25">
					<path
   style="fill:#FA9B27;"
   d="M1427.7,2879.65c-77.05,147.75-174.95,256.45-234.4,314.7c-22.75,22.35-51.2,37.6-81.9,44.4       c-12.05,2.7-24.5,4.1-37.1,4.1h-368c-40.45,0-74.55-30.35-79.1-70.55c-1.8-16.15-1.75-31.1-0.2-44.85       c13.65-121,143.35-153.5,143.35-153.5c27.8-54,68.7-101.55,108.65-139.7c31.15-29.8,61.7-53.9,85.05-70.85       c25.2-18.35,42-28.4,42-28.4c127.7-21.35,222.05-0.05,288.75,32.2C1388.7,2812.6,1427.7,2879.65,1427.7,2879.65z"
   id="path24" />
				</g>
				<g
   id="g26">
					<path
   style="fill:#FFFFFF;"
   d="M1111.4,3238.75c-12.05,2.7-24.5,4.1-37.1,4.1h-368c-40.45,0-74.55-30.35-79.1-70.55       c-17.8-158,143.15-198.35,143.15-198.35S1087.45,2918.05,1111.4,3238.75z"
   id="path25" />
				</g>
				<g
   style="opacity:0.3;"
   id="g27">
					<path
   style="fill:#000072;"
   d="M1427.7,2879.65c-77.05,147.75-174.95,256.45-234.4,314.7c-22.75,22.35-51.2,37.6-81.9,44.4       c-12.05,2.7-24.5,4.1-37.1,4.1h-368c-40.45,0-74.55-30.35-79.1-70.55c-1.8-16.15-1.75-31.1-0.2-44.85       c9.45,23.25,31.8,51,79.3-1.4c0,0,0.61,8.185,4.899,18.922c17.717,44.351,77.189,50.554,106.424,12.789       c10.212-13.192,24.568-26.128,43.777-31.711c0,0,63.26,59.626,159.059,58.631c48.973-0.509,87.7-42.714,84.154-91.56       c-5.865-80.816-46.103-203.901-225.614-258.871c31.15-29.8,61.7-53.9,85.05-70.85c108.9-3.45,236.85-2.15,330.75,3.8       C1388.7,2812.6,1427.7,2879.65,1427.7,2879.65z"
   id="path26" />
				</g>
				<g
   id="g28">
					<path
   style="fill:#000072;"
   d="M1074.307,3260.355H706.312c-49.48,0-90.967-37.007-96.499-86.089       c-16.926-150.117,114.543-203.691,148.455-214.932c75.708-140.596,232.095-235.327,238.816-239.351       c1.875-1.123,3.945-1.885,6.104-2.246c164.304-27.48,274.712,15.029,338.393,55.532c69.754,44.36,99.971,95.42,101.223,97.568       c3.02,5.19,3.169,11.567,0.396,16.89c-75.93,145.703-171.133,253.975-237.629,319.146       C1170.384,3241.361,1123.767,3260.355,1074.307,3260.355z M1012.33,2751.703c-21.377,13.418-161.843,104.893-226.416,230.239       c-2.305,4.473-6.421,7.739-11.301,8.96c-5.93,1.514-145.872,38.862-130.02,179.443c3.535,31.362,30.068,55.01,61.719,55.01       h367.996c40.242,0,78.159-15.439,106.763-43.481c51.865-50.83,149.287-156.763,226.272-301.177       c-10.715-14.932-38.313-48.857-86.165-78.916C1237.098,2748.954,1133.196,2732.118,1012.33,2751.703z"
   id="path27" />
				</g>
				<g
   id="g29">
					<path
   style="fill:#000072;"
   d="M765.533,2957.107c4.055-1.147,7.036-1.853,10.461-2.593c3.32-0.736,6.622-1.348,9.928-1.873       c6.606-1.041,13.202-1.953,19.818-2.429c13.22-1.163,26.479-1.234,39.683-0.465c26.405,1.501,52.604,6.798,77.443,15.714       c12.488,4.261,24.467,9.883,36.063,16.012c11.647,6.064,22.669,13.22,33.126,20.995c20.647,15.914,38.619,35.109,51.443,57.397       c0.582,1.012,0.234,2.305-0.778,2.887c-0.737,0.424-1.639,0.343-2.291-0.118c-20.703-14.696-40.601-28.571-61.442-40.428       c-10.558-5.657-20.95-11.455-31.979-15.873c-10.95-4.537-22.095-8.497-33.468-11.594c-22.723-6.248-46.135-9.615-69.611-10.166       c-11.73-0.288-23.483,0.063-35.127,1.111c-5.825,0.515-11.615,1.211-17.344,2.053l-8.501,1.406       c-2.698,0.464-5.807,1.14-7.778,1.608l-0.856,0.203c-9.4,2.227-18.823-3.589-21.05-12.987       C751.111,2968.826,756.589,2959.651,765.533,2957.107z"
   id="path28" />
				</g>
				<g
   id="g30">
					<path
   style="fill:#000072;"
   d="M690.3,3249.923c-2.991-5.542-4.836-10.319-6.709-15.638c-1.762-5.223-3.292-10.519-4.44-15.936       c-2.355-10.803-3.562-21.982-3.138-33.392c0.475-11.357,2.078-22.976,6.969-33.839c4.816-10.729,12.423-20.56,22.441-25.807       c0.615-0.322,1.375-0.085,1.697,0.53c0.154,0.294,0.181,0.623,0.098,0.919l-0.021,0.074       c-2.955,10.58-3.809,19.731-3.508,28.844c0.162,9.027,1.861,18.047,3.568,26.943c1.794,8.925,4.364,17.856,7.034,26.781       l4.104,13.392c1.333,4.344,2.904,9.175,3.926,12.997l0.343,1.282c2.5,9.353-3.057,18.962-12.41,21.462       C702.255,3260.673,694.066,3256.907,690.3,3249.923z"
   id="path29" />
				</g>
				<g
   id="g31">
					<path
   style="fill:#000072;"
   d="M845.389,3249.923c-2.99-5.542-4.836-10.319-6.709-15.638       c-1.762-5.223-3.292-10.519-4.439-15.936c-2.356-10.803-3.563-21.982-3.14-33.392c0.475-11.357,2.078-22.976,6.969-33.839       c4.816-10.729,12.423-20.56,22.441-25.807c0.615-0.322,1.375-0.085,1.697,0.53c0.155,0.294,0.181,0.623,0.098,0.919       l-0.021,0.074c-2.955,10.58-3.809,19.731-3.508,28.844c0.162,9.027,1.863,18.047,3.568,26.943       c1.794,8.925,4.364,17.856,7.034,26.781l4.104,13.392c1.333,4.344,2.904,9.175,3.926,12.997l0.343,1.282       c2.5,9.353-3.055,18.962-12.409,21.462C857.344,3260.673,849.155,3256.907,845.389,3249.923z"
   id="path30" />
				</g>
			</g>
			<g
   id="g37">
				<g
   id="g33">
					<path
   style="fill:#F90060;"
   d="M2163.75,2198.214c0,0,88.393-203.571,296.25-183.214c0,0,34.821,192.321-278.571,233.571       L2163.75,2198.214z"
   id="path32" />
				</g>
				<g
   style="opacity:0.3;"
   id="g34">
					<path
   style="fill:#000072;"
   d="M2454.224,2014.526c-29.926,53.713-99.336,113.188-257.795,134.045l-1.239-3.529       c-21.347,29.957-31.44,53.171-31.44,53.171l17.678,50.357C2494.822,2207.322,2460,2015,2460,2015       C2458.057,2014.81,2456.146,2014.678,2454.224,2014.526z"
   id="path33" />
				</g>
				<g
   id="g35">
					<path
   style="fill:#000072;"
   d="M2181.419,2266.073c-7.344,0-14.014-4.624-16.504-11.704l-17.681-50.356       c-1.46-4.16-1.294-8.721,0.464-12.764c0.952-2.202,23.984-54.502,73.818-104.614c66.738-67.114,149.819-97.896,240.186-89.053       c7.788,0.762,14.121,6.602,15.518,14.297c0.488,2.705,11.436,66.919-35.894,131.777s-134.004,105.996-257.612,122.266       C2182.942,2266.024,2182.176,2266.073,2181.419,2266.073z M2182.63,2199.164l10.557,30.073       c105.723-15.986,179.478-51.45,219.351-105.508c27.368-37.104,31.338-73.462,31.177-92.368       C2278.504,2023.764,2198.416,2167.069,2182.63,2199.164z"
   id="path34" />
				</g>
				<g
   id="g36">
					<path
   style="fill:#000072;"
   d="M2169.205,2229.519c13.407-13.945,27.269-27.131,41.533-40.027       c14.232-12.897,28.845-25.4,43.8-37.528c7.424-6.125,15.048-12.031,22.748-17.852c7.731-5.785,15.363-11.703,23.475-17.047       c16.044-10.731,33.204-20.819,52.672-25.837c1.228-0.317,2.479,0.421,2.795,1.649c0.22,0.848-0.066,1.709-0.668,2.263       l-0.066,0.061c-14.227,13.052-27.983,25.667-42.201,38.168c-14.261,12.347-28.457,24.832-42.473,37.6l-42.019,38.372       c-13.961,12.83-28.079,25.643-42.219,38.151l-0.074,0.066c-5.175,4.576-13.079,4.092-17.655-1.083       C2164.513,2241.567,2164.76,2234.17,2169.205,2229.519z"
   id="path35" />
				</g>
			</g>
			<g
   id="g41">
				<g
   id="g38">
					<path
   style="fill:#F90060;"
   d="M2354.7,2704.2c-35.95,32.9-72,45.25-72,45.25c0.5-281.25-114.15-520.15-114.15-520.15       l48.85-66.65l18.65-25.5C2507.05,2471.5,2431.1,2634.25,2354.7,2704.2z"
   id="path37" />
				</g>
				<g
   style="opacity:0.3;"
   id="g39">
					<path
   style="fill:#000072;"
   d="M2354.7,2704.2c-35.95,32.9-72,45.25-72,45.25c0.5-281.25-114.15-520.15-114.15-520.15       l48.85-66.65C2300.25,2292.55,2403.7,2505.55,2354.7,2704.2z"
   id="path38" />
				</g>
				<g
   id="g40">
					<path
   style="fill:#000072;"
   d="M2282.679,2766.967c-3.608,0-7.178-1.118-10.186-3.271c-4.6-3.291-7.324-8.604-7.314-14.263       c0.522-273.73-111.255-510.225-112.388-512.583c-2.788-5.815-2.148-12.7,1.665-17.905l67.5-92.144       c3.208-4.38,8.262-7.021,13.687-7.153c5.61-0.137,10.61,2.266,14.023,6.475c158.228,195.234,220.195,357.759,184.18,483.062       c-33.726,117.344-140.947,155.283-145.498,156.841C2286.502,2766.654,2284.583,2766.967,2282.679,2766.967z M2188.777,2231.317       c20.786,46.299,105.42,248.97,111.104,490.728c29.941-16.68,80.859-54.121,100.474-123.037       c30.845-108.374-25.718-257.817-163.682-433.076L2188.777,2231.317z"
   id="path39" />
				</g>
			</g>
			<g
   id="g79">
				<g
   id="g50">
					<g
   id="g45">
						<g
   id="g42">
							<path
   style="fill:#FA9B27;"
   d="M872.363,2270.041c0,0-93.541-304.918,26.891-579.222         c22.887-52.13,78.46-82.32,134.384-71.653c74.495,14.209,184.962,54.72,299.334,165.86         C1332.972,1785.027,1014.398,1865.426,872.363,2270.041z"
   id="path41" />
						</g>
						<g
   style="opacity:0.7;"
   id="g43">
							<path
   style="fill:#FFFFFF;"
   d="M925.701,1710.595c18.885-53.709,72.019-88.01,128.589-81.596         c13.129,1.488,27.431,3.713,42.707,6.875c-23.094-7.756-44.397-13.09-63.359-16.708         c-55.924-10.667-111.497,19.524-134.384,71.653c-120.432,274.304-26.891,579.222-26.891,579.222         c11.549-32.899,24.281-63.618,37.898-92.361C885.27,2065.549,864.256,1885.341,925.701,1710.595z"
   id="path42" />
						</g>
						<g
   id="g44">
							<path
   style="fill:#000072;"
   d="M872.366,2287.543c-0.117,0-0.234,0-0.352-0.005c-7.559-0.151-14.165-5.137-16.382-12.363         c-3.896-12.705-94.05-314.321,27.598-591.392c26.509-60.371,89.714-93.979,153.687-81.807         c75.376,14.38,190.042,55.63,308.25,170.503c4.551,4.419,6.35,10.952,4.707,17.08c-1.641,6.128-6.47,10.884-12.62,12.436         c-0.754,0.19-78.677,20.591-172.437,88.984c-86.367,62.998-204.348,180.903-275.942,384.858         C886.412,2282.86,879.783,2287.543,872.366,2287.543z M1010.86,1634.506c-40.764,0-78.393,24.199-95.583,63.35         c-86.895,197.92-59.072,414.961-39.063,513.32c75.603-181.001,186.377-289.263,269.439-349.536         c64.436-46.758,121.106-71.934,153.752-84.043c-104.216-93.706-202.878-128.618-269.045-141.235         C1023.829,1635.111,1017.303,1634.506,1010.86,1634.506z"
   id="path43" />
						</g>
					</g>
					<g
   id="g49">
						<g
   id="g46">
							<path
   style="fill:#FF699F;"
   d="M942.682,2170.406c0,0-64.996-211.87,18.685-402.468         c15.903-36.222,54.517-57.199,93.376-49.787c51.763,9.873,128.519,38.021,207.99,115.246         C1262.733,1833.397,1041.374,1889.262,942.682,2170.406z"
   id="path45" />
						</g>
						<g
   style="opacity:0.3;"
   id="g47">
							<path
   style="fill:#000072;"
   d="M996.367,1832.938c15.903-36.222,54.517-57.199,93.375-49.788         c37.228,7.101,87.385,23.657,142.182,61.123c19.139-7.922,30.808-10.876,30.808-10.876         c-79.471-77.225-156.227-105.373-207.99-115.247c-38.859-7.412-77.473,13.566-93.375,49.788         c-83.681,190.598-18.685,402.468-18.685,402.468c4.82-13.73,9.94-26.905,15.305-39.58         C949.278,2051.758,949.775,1939.06,996.367,1832.938z"
   id="path46" />
						</g>
						<g
   id="g48">
							<path
   style="fill:#000072;"
   d="M942.684,2182.904c-0.086,0-0.169,0-0.251-0.005c-5.398-0.107-10.117-3.667-11.702-8.828         c-2.71-8.833-65.383-218.525,19.192-411.157c18.479-42.095,62.556-65.557,107.161-57.041         c52.422,10,132.166,38.687,214.36,118.56c3.249,3.159,4.536,7.827,3.362,12.202c-1.172,4.375-4.621,7.773-9.014,8.882         c-2.134,0.547-216.189,58.042-311.316,329.028C952.715,2179.559,947.979,2182.904,942.684,2182.904z M1038.917,1729.154         c-28.191,0-54.216,16.733-66.104,43.809c-60.005,136.67-41.23,286.489-27.356,355.322         c86.526-207.153,237.637-279.805,293.223-300.249c-72.165-64.717-140.454-88.862-186.279-97.603         C1047.884,1729.569,1043.372,1729.154,1038.917,1729.154z"
   id="path47" />
						</g>
					</g>
				</g>
				<g
   id="g59">
					<g
   id="g54">
						<g
   id="g51">
							<path
   style="fill:#FA9B27;"
   d="M2241.575,2295.041c0,0,98.692-321.71-28.372-611.12c-24.148-55-82.781-86.854-141.785-75.599         c-78.598,14.992-195.148,57.733-315.819,174.994C1755.599,1783.316,2091.718,1868.143,2241.575,2295.041z"
   id="path50" />
						</g>
						<g
   style="opacity:0.7;"
   id="g52">
							<path
   style="fill:#FFFFFF;"
   d="M2185.3,1704.785c-19.925-56.667-75.985-92.856-135.67-86.09         c-13.852,1.57-28.941,3.918-45.059,7.254c24.366-8.183,46.842-13.812,66.848-17.628         c59.004-11.254,117.637,20.599,141.785,75.599c127.064,289.41,28.371,611.12,28.371,611.12         c-12.185-34.711-25.618-67.122-39.985-97.448C2227.957,2079.287,2250.128,1889.155,2185.3,1704.785z"
   id="path51" />
						</g>
						<g
   id="g53">
							<path
   style="fill:#000072;"
   d="M2241.57,2313.505c-7.822,0-14.814-4.937-17.417-12.349         c-75.537-215.181-200.015-339.585-291.138-406.055c-98.926-72.158-181.138-93.682-181.958-93.892         c-6.475-1.65-11.567-6.68-13.286-13.135c-1.724-6.46,0.166-13.345,4.961-18.003         c124.726-121.196,245.703-164.717,325.229-179.883c67.495-12.905,134.18,22.617,162.144,86.309         c128.35,292.329,33.232,610.557,29.121,623.96c-2.339,7.627-9.307,12.886-17.28,13.047         C2241.819,2313.505,2241.697,2313.505,2241.57,2313.505z M1791.014,1775.472c34.443,12.778,94.238,39.341,162.222,88.677         c87.637,63.594,204.507,177.817,284.277,368.784c21.108-103.779,50.464-332.773-41.216-541.592         c-21.001-47.832-70.957-74.497-121.416-64.883C2005.071,1639.774,1900.975,1676.605,1791.014,1775.472z"
   id="path52" />
						</g>
					</g>
					<g
   id="g58">
						<g
   id="g55">
							<path
   style="fill:#FF699F;"
   d="M2167.383,2189.919c0,0,68.576-223.538-19.714-424.632         c-16.779-38.216-57.52-60.349-98.518-52.529c-54.613,10.417-135.597,40.115-219.444,121.593         C1829.707,1834.351,2063.256,1893.292,2167.383,2189.919z"
   id="path54" />
						</g>
						<g
   style="opacity:0.3;"
   id="g56">
							<path
   style="fill:#000072;"
   d="M2110.742,1833.866c-16.779-38.217-57.519-60.349-98.518-52.53         c-39.278,7.492-92.198,24.96-150.012,64.489c-20.193-8.359-32.504-11.475-32.504-11.475         c83.847-81.478,164.831-111.176,219.444-121.593c40.999-7.82,81.739,14.313,98.518,52.529         c88.29,201.094,19.714,424.632,19.714,424.632c-5.085-14.486-10.488-28.386-16.148-41.76         C2160.424,2064.736,2159.9,1945.832,2110.742,1833.866z"
   id="path55" />
						</g>
						<g
   id="g57">
							<path
   style="fill:#000072;"
   d="M2167.381,2203.109c-5.591,0-10.586-3.53-12.446-8.818         c-100.615-286.631-326.192-346.582-328.457-347.153c-4.634-1.172-8.271-4.756-9.512-9.375         c-1.235-4.614,0.122-9.541,3.55-12.871c86.733-84.277,170.864-114.541,226.167-125.088         c47.061-8.984,93.564,15.762,113.062,60.181c89.233,203.242,23.105,424.487,20.244,433.804         c-1.67,5.449-6.65,9.204-12.344,9.316C2167.557,2203.109,2167.469,2203.109,2167.381,2203.109z M1854.993,1828.773         c24.043,8.965,65.347,27.417,112.246,61.45c60.771,44.097,141.753,123.193,197.197,255.322         c14.644-72.588,34.487-230.713-28.843-374.956c-14.526-33.086-49.023-51.523-83.97-44.878         C2003.26,1734.935,1931.18,1760.428,1854.993,1828.773z"
   id="path56" />
						</g>
					</g>
				</g>
				<g
   id="g78">
					<g
   id="g60">
						<path
   style="fill:#FA9B27;"
   d="M1466.8,3113.2c0,0-754.7,0-657.65-598.3c5.4-33.3,13.45-68.5,24.4-105.6        c0,0,81.45-651.45,708.25-651.45c626.75,0,729.65,663.75,729.65,663.75s2.75,6.75,6.65,18.9        C2313.75,2551.55,2446,3114.25,1466.8,3113.2z"
   id="path59" />
					</g>
					<g
   id="g61">
						<path
   style="fill:#FFFFFF;"
   d="M1466.8,3113.2c0,0-754.7,0-657.65-598.3c21.3-0.15,48.05,8.7,78,38.65        c60.7,60.7,47.15,79.65,135.55,116.95c37.7,15.85,81.5,8,120.6-4c37.9-11.6,102.35-25.25,193.55-24c0,0,89.75-1.45,316.3,60.1        c70.85,19.25,146.05,18.7,216-3.6c68-21.65,146.7-66,218-154c0,0,80.75-111.5,190.95-104.5        C2313.75,2551.55,2446,3114.25,1466.8,3113.2z"
   id="path60" />
					</g>
					<g
   style="opacity:0.3;"
   id="g62">
						<path
   style="fill:#000072;"
   d="M2278.1,2440.5c-3.9-12.15-6.65-18.9-6.65-18.9s-52.325-337.019-309.17-530.754        c158.274,189.51,194.17,420.754,194.17,420.754s2.75,6.75,6.65,18.9c35.65,111.05,167.9,673.75-811.3,672.7        c0,0-277.898-0.015-474.744-133.707C1052.112,3113.191,1466.8,3113.2,1466.8,3113.2        C2446,3114.25,2313.75,2551.55,2278.1,2440.5z"
   id="path61" />
					</g>
					<g
   style="opacity:0.7;"
   id="g63">
						<path
   style="fill:#FFFFFF;"
   d="M1541.8,1757.85c-626.8,0-708.25,651.45-708.25,651.45c-10.95,37.1-19,72.3-24.4,105.6        c-17.687,109.038-7.062,198.185,22.107,271.101c-17.248-63.808-21.31-138.538-7.107-226.101c5.4-33.3,13.45-68.5,24.4-105.6        c0,0,49.021-391.408,363.01-567.42c14.374,13.877,60.961,12.573,111.995-4.357c54.798-18.179,94.713-47.733,92.51-67.68        c43.566-7.737,90.367-11.993,140.735-11.993c437.791,0,619.952,323.814,690.019,519.092        C2189.802,2136.693,2015.338,1757.85,1541.8,1757.85z"
   id="path62" />
					</g>
					<g
   id="g64">
						<path
   style="fill:#000072;"
   d="M987.765,2462.103c19.365-7.858,39.918-9.972,60.677-9.253        c20.692,0.981,41.674,5.219,61.351,13.224c5.084,1.682,9.758,4.18,14.569,6.484c4.794,2.333,9.661,4.622,14.072,7.596        c4.551,2.777,8.971,5.774,13.459,8.693c4.27,3.177,8.351,6.593,12.422,10.028c8.457,6.578,15.26,14.739,22.317,22.595        c6.641,8.184,12.363,17.014,17.554,26.072c7.396,12.906,2.93,29.366-9.978,36.763c-10.013,5.739-22.164,4.336-30.564-2.609        l-2.948-2.457c-3.369-2.799-6.423-5.78-9.446-8.761c-3.057-2.926-5.614-6.338-8.879-8.967        c-6.263-5.509-11.703-11.854-18.093-17.028c-3.137-2.654-6.011-5.654-9.158-8.301c-3.187-2.578-6.443-5.078-9.568-7.797        c-3.068-2.822-6.533-5.023-9.834-7.545c-3.385-2.373-6.563-5.19-10.148-7.302c-13.744-9.64-28.864-17.644-44.962-24.943        c-16.077-7.375-33.523-13.336-51.831-18.195l-0.498-0.133c-2.302-0.61-3.673-2.972-3.062-5.276        C985.577,2463.639,986.564,2462.599,987.765,2462.103z"
   id="path63" />
					</g>
					<g
   id="g65">
						<path
   style="fill:#000072;"
   d="M1789.692,2496.959c-20.255,3.8-39.73,9.058-57.856,15.99        c-18.142,6.863-35.315,14.662-51.075,24.414c-4.089,2.104-7.769,5.005-11.649,7.421c-3.799,2.577-7.758,4.808-11.311,7.742        c-3.615,2.813-7.349,5.4-11.019,8.07c-3.622,2.755-6.967,5.905-10.569,8.68c-7.335,5.391-13.657,12.131-20.813,17.941        c-3.716,2.766-6.685,6.418-10.171,9.523c-3.446,3.17-6.923,6.339-10.706,9.312l-2.853,2.241        c-11.687,9.181-28.604,7.15-37.784-4.537c-7.311-9.305-7.483-21.959-1.361-31.351c6.188-9.463,12.855-18.713,20.485-27.205        c8.057-8.119,15.823-16.609,25.287-23.309c4.573-3.514,9.141-7.023,13.909-10.258c4.985-2.95,9.907-5.98,14.948-8.788        c4.902-3.024,10.266-5.278,15.548-7.599c5.302-2.283,10.461-4.795,16.028-6.403c21.614-7.848,44.47-11.616,66.914-11.96        c22.5-0.07,44.709,2.882,65.441,11.833c2.175,0.939,3.176,3.463,2.238,5.638c-0.583,1.35-1.777,2.249-3.12,2.511        L1789.692,2496.959z"
   id="path64" />
					</g>
					<g
   id="g66">
						<path
   style="fill:#000072;"
   d="M1469.422,3130.717c-0.896,0-1.758,0-2.654,0c-4.228,0-105.4-0.342-230.09-30.176        c-166.419-39.814-294.065-113.955-369.141-214.399c-91.599-122.559-108.801-284.219-51.138-480.488        c2.395-17.754,25.591-173.291,121.269-331.152c92.388-152.437,272.192-334.145,604.116-334.145        c146.35,0,276.831,35.815,387.827,106.445c88.726,56.46,165.054,135.063,226.865,233.628        c99.858,159.229,128.521,316.123,131.919,336.494c9.604,24.673,90.889,248.682-39.497,442.266        C2127.542,3039.364,1865.271,3130.712,1469.422,3130.717z M1541.785,1775.355c-252.971,0-445.947,106.411-573.569,316.274        c-95.984,157.832-117.078,318.232-117.28,319.834c-0.117,0.938-0.313,1.875-0.579,2.778        c-54.839,185.713-39.626,337.432,45.215,450.942c170.33,227.896,567.224,230.532,571.213,230.532c0.869,0,1.775,0,2.642,0        c383.315,0.005,635.698-86.05,750.254-255.801c124.927-185.122,36.44-409.492,35.532-411.738        c-0.503-1.24-0.869-2.563-1.074-3.892c-0.259-1.631-26.646-165.225-127.93-326.24        C1991.521,1883.925,1794.891,1775.355,1541.785,1775.355z"
   id="path65" />
					</g>
					<g
   id="g67">
						
							<ellipse
   transform="matrix(0.6337 -0.7736 0.7736 0.6337 -1417.9476 1782.9822)"
   style="fill:#FFFFFF;"
   cx="1173.791"
   cy="2388.792"
   rx="39.107"
   ry="70.179"
   id="ellipse66" />
					</g>
					<g
   id="g68">
						
							<ellipse
   transform="matrix(0.8092 -0.5875 0.5875 0.8092 -1106.4042 1395.5575)"
   style="fill:#FFFFFF;"
   cx="1595.424"
   cy="2401.219"
   rx="70.179"
   ry="39.107"
   id="ellipse67" />
					</g>
					<g
   id="g77">
						<g
   style="opacity:0.3;"
   id="g69">
							<path
   style="fill:#000072;"
   d="M1299.861,2687.772c0,0-9.365,73.088-66.595,70.667s-75.596-68.792-75.596-68.792         s-82.842,139.707,78.428,208.723l249.806-27.903c0,0,129.443-28.908,66.066-157.466c0,0-41.032,72.907-95.396,55.065         c-54.365-17.843-66.975-67.316-66.975-67.316L1299.861,2687.772z"
   id="path68" />
						</g>
						<g
   id="g70">
							<path
   style="fill:#000072;"
   d="M1448.552,2655.15c-9.93-39.838-94.276-48.539-94.276-48.539s-84.346-8.7-102.199,28.272         c-17.853,36.972,41.274,91.795,89.303,96.749C1389.409,2736.587,1458.482,2694.988,1448.552,2655.15z"
   id="path69" />
						</g>
						<g
   id="g71">
							<path
   style="fill:#000072;"
   d="M1361.821,2726.024l0.967,3.317c0.404,1.296,0.847,2.637,1.334,3.967         c0.952,2.667,2.028,5.339,3.152,7.986c2.25,5.302,4.926,10.415,7.822,15.314c5.839,9.794,13.057,18.411,21.313,25.503         c4.119,3.583,8.644,6.58,13.359,9.253c4.679,2.75,9.703,4.941,14.95,6.693c10.463,3.531,21.941,5.239,33.748,5.332         c23.578,0.292,45.541-6.245,60.1-23.237c14.668-16.768,23.171-41.071,29.692-66.875l0.068-0.266         c0.518-2.053,2.603-3.297,4.655-2.778c1.304,0.33,2.288,1.315,2.695,2.496c2.384,7.102,3.346,14.113,3.884,21.375         c0.469,7.23,0.11,14.541-0.909,21.884c-2.074,14.63-7.518,29.437-16.899,42.3c-9.16,12.976-22.272,23.684-36.816,30.497         c-14.547,7.041-30.233,9.832-45.316,10.891c-7.585,0.581-15.237,0.383-22.976-0.155c-7.722-0.897-15.511-2.042-23.159-4.297         c-15.344-4.122-30.133-11.62-42.682-21.631c-12.633-9.954-23.04-22.244-31.139-35.509c-4.086-6.63-7.505-13.574-10.513-20.68         c-1.517-3.552-2.845-7.181-4.043-10.9c-0.612-1.853-1.177-3.73-1.715-5.668c-0.569-2.056-0.99-3.607-1.6-6.458         c-2.36-11.023,4.662-21.871,15.685-24.232c10.51-2.25,20.863,4.031,23.849,14.176L1361.821,2726.024z"
   id="path70" />
						</g>
						<g
   id="g72">
							<path
   style="fill:#000072;"
   d="M1363.823,2734.5c-0.626,2.899-1.053,4.445-1.636,6.509c-0.553,1.942-1.136,3.823-1.764,5.681         c-1.244,3.719-2.614,7.356-4.203,10.9c-3.124,7.104-6.736,14.027-11.111,20.571c-8.634,13.099-19.825,25.143-33.492,34.091         c-6.788,4.482-14.034,8.322-21.605,11.229c-7.6,2.803-15.388,4.846-23.199,6.144c-15.677,2.499-31.051,1.792-45.864-0.612         c-14.869-2.507-30.352-7.262-44.021-16.627c-13.721-9.154-24.691-23.091-30.343-38.06c-5.84-14.977-7.01-30.542-5.232-45.007         c1.79-14.53,5.974-28.202,13.378-40.67c1.075-1.812,3.416-2.407,5.227-1.332c1.19,0.707,1.855,1.958,1.868,3.247l0.002,0.311         c0.179,26.416,1.887,52.372,11.575,71.759c4.821,9.647,12.009,16.956,21.035,21.882c9.037,4.906,19.838,7.751,31.383,8.805         c11.665,1.012,23.333,0.505,33.992-1.715c5.322-1.207,10.415-2.88,15.262-4.956c4.777-2.218,9.357-4.733,13.604-7.788         c8.499-6.069,15.754-14.102,21.741-23.328c2.95-4.637,5.684-9.528,7.938-14.659c1.144-2.554,2.198-5.153,3.167-7.737         c0.486-1.293,0.931-2.593,1.332-3.853l0.947-3.174l0.524-1.755c3.221-10.798,14.587-16.941,25.386-13.719         C1359.979,2713.699,1366.021,2724.199,1363.823,2734.5z"
   id="path71" />
						</g>
						<g
   id="g73">
							<path
   style="fill:#000072;"
   d="M1204.755,2806.184c0,0,8.869,160.111,146.403,169.496         c137.534,9.385,143.096-160.49,143.096-160.49s-136.011,31.546-149.224-102.323         C1345.029,2712.866,1331.044,2841.684,1204.755,2806.184z"
   id="path72" />
						</g>
						<g
   id="g74">
							<path
   style="fill:#F95A93;"
   d="M1250.614,2925.831c0,0,66.79-150.274,231.556-47.344         C1482.17,2878.487,1408.98,3058.177,1250.614,2925.831z"
   id="path73" />
						</g>
						<g
   id="g75">
							<path
   style="fill:#000072;"
   d="M1362.027,2992.191c-3.926,0-7.913-0.137-11.968-0.415         c-120.042-8.188-158.076-124.395-161.418-184.697c-0.288-5.2,1.953-10.22,6.016-13.481c4.065-3.257,9.443-4.346,14.465-2.949         c32.646,9.18,59.385,6.997,79.451-6.489c34.351-23.081,40.364-72.583,40.42-73.081c0.93-8.154,7.837-14.326,16.033-14.326         c0.042,0,0.083,0,0.125,0c8.252,0.063,15.129,6.318,15.94,14.526c3.328,33.726,15.486,58.374,36.135,73.257         c37.69,27.163,92.864,15.044,93.418,14.927c4.888-1.099,10.012,0.107,13.865,3.286c3.857,3.184,6.038,7.974,5.874,12.969         c-0.125,3.789-3.679,93.413-59.277,143.672C1426.993,2981.185,1397.068,2992.191,1362.027,2992.191z M1223.704,2826.801         c7.563,41.021,34.558,126.362,128.552,132.778c31.111,2.129,57.056-5.967,77.107-24.043         c31.548-28.442,42.781-75.308,46.712-101.558c-24.38,1.924-64.683,0.439-97.517-23.115         c-14.98-10.747-26.69-24.756-35.063-41.899c-8.108,15.088-19.832,30.435-36.697,41.831         C1283.841,2826.307,1255.967,2831.659,1223.704,2826.801z"
   id="path74" />
						</g>
						<g
   id="g76">
							
								<ellipse
   transform="matrix(0.0448 -0.999 0.999 0.0448 -1369.6362 3846.3303)"
   style="fill:#FFFFFF;"
   cx="1326.552"
   cy="2639.392"
   rx="12.58"
   ry="37.74"
   id="ellipse75" />
						</g>
					</g>
				</g>
			</g>
			<g
   id="g88">
				<g
   id="g80">
					<path
   style="fill:#FA9B27;"
   d="M2298.6,3201.25c-34,19.05-71,31.7-109.25,37.65c-16.85,2.6-34,3.95-51.2,3.95h-390.1       c-38.7,0-69.5-32.9-66.3-71.5c1.7-20.5,5.95-44.2,14.35-68.4c24.7-71.25,85.3-146.6,222.1-156.1c0,0,15.3-23.95,47.6-57.6       c66.9-69.6,206.6-180.75,434.2-206.75l230.35,106.05C2644.3,2980.15,2423.1,3131.65,2298.6,3201.25z"
   id="path79" />
				</g>
				<g
   id="g81">
					<path
   style="fill:#FFFFFF;"
   d="M2192.55,3238.9c-16.85,2.6-34,3.95-51.2,3.95h-390.1c-38.7,0-69.5-32.9-66.3-71.5       c6.7-80.8,53.15-211.75,236.45-224.5C1921.4,2946.85,2198.9,2953.15,2192.55,3238.9z"
   id="path80" />
				</g>
				<g
   style="opacity:0.3;"
   id="g82">
					<path
   style="fill:#000072;"
   d="M2298.6,3201.25c-34,19.05-71,31.7-109.25,37.65c-16.85,2.6-34,3.95-51.2,3.95h-390.1       c-38.7,0-69.5-32.9-66.3-71.5c1.7-20.5,5.95-44.2,14.35-68.4c0.7,2.8,21.1,86.1,84.35,18.55c0,0,7.66,18.546,26.737,35.505       c27.815,24.726,71.087,22.683,95.446-5.454c11.903-13.749,29.14-27.209,52.217-30.051c0,0,100.6,73.5,232.7,45.6       c0,0,283.1-70,442.8-378.55C2644.3,2980.15,2423.1,3131.65,2298.6,3201.25z"
   id="path81" />
				</g>
				<g
   style="opacity:0.3;"
   id="g83">
					<path
   style="fill:#000072;"
   d="M2144.45,3060.05c-73.1-120.1-226.25-113.2-226.25-113.2s15.3-23.95,47.6-57.6       C2156.85,2921.15,2144.45,3060.05,2144.45,3060.05z"
   id="path82" />
				</g>
				<g
   id="g84">
					<path
   style="fill:#000072;"
   d="M2447.317,2673.312c-48.607,17.853-96.429,29.296-143.707,44.691       c-23.427,8.14-46.632,16.853-69.227,26.99c-22.639,9.994-45.037,20.558-66.674,32.563       c-21.643,11.965-43.029,24.396-63.724,37.933c-20.624,13.634-40.836,27.891-60.408,42.983       c-19.492,15.183-38.606,30.884-56.797,47.555c-9.114,8.312-18.094,16.755-26.792,25.439       c-4.319,4.366-8.666,8.696-12.872,13.116c-4.156,4.338-8.473,9.043-12.029,13.147l-0.529,0.609       c-3.143,3.627-7.51,5.637-11.946,5.948l-0.002,0.001c-15.693,1.438-31.223,3.668-46.392,7.047       c-15.146,3.445-29.84,8.204-43.889,14.128c-28.146,11.75-53.317,29.276-73.136,51.777       c-19.799,22.511-34.272,49.728-43.184,78.915c-4.529,14.568-7.644,29.661-9.523,44.858c-0.492,3.8-0.834,7.61-1.162,11.418       c-0.24,3.171-0.195,5.802,0.076,8.685c0.515,5.634,2.183,11.119,4.788,16.162c5.165,10.133,14.403,18.242,25.082,22.111       c2.666,0.98,5.416,1.73,8.228,2.175c1.406,0.211,2.817,0.417,4.246,0.496c0.709,0.074,1.425,0.103,2.144,0.105l2.488,0.038       l24.741-0.048l98.964-0.118l197.926,0.298l49.482,0.143c16.915,0.114,32.048,0.294,47.524-1.165       c30.845-2.869,61.331-10.146,89.969-22.032c7.192-2.889,14.204-6.206,21.149-9.646c3.473-1.725,6.852-3.608,10.295-5.411       l10.63-5.946c14.131-8.002,28.114-16.262,41.902-24.822c27.556-17.142,54.541-35.172,80.394-54.617       c51.527-38.882,99.659-82.889,136.558-134.661c9.216-12.911,17.557-26.354,24.998-40.205       c7.358-13.892,13.95-28.091,19.847-42.599c5.854-14.524,10.969-29.404,15.106-44.797c4.242-15.397,7.405-31.26,10.421-47.915       c0.122-0.725,0.809-1.213,1.534-1.091c0.5,0.084,0.894,0.455,1.045,0.905c10.515,32.612,8.979,68.804-0.098,102.239       c-9.07,33.704-26.312,64.282-45.433,92.563c-38.925,56.547-88.757,103.397-141.638,144.774       c-26.575,20.613-54.059,39.933-82.388,57.85c-14.152,8.979-28.49,17.644-42.982,26.041l-10.901,6.241       c-3.838,2.069-7.649,4.231-11.541,6.216c-7.791,3.964-15.67,7.772-23.749,11.121c-32.184,13.723-66.503,22.3-101.299,25.872       c-8.71,0.793-17.44,1.427-26.188,1.603c-8.987,0.242-16.781,0.159-25.157,0.236l-49.482,0.143l-197.926,0.298l-98.964-0.118       l-24.741-0.048l-3.695-0.067c-1.344-0.023-2.688-0.088-4.032-0.215c-2.687-0.181-5.366-0.548-8.03-0.979       c-5.33-0.887-10.574-2.317-15.638-4.202c-20.315-7.498-37.482-22.717-47.285-42.025c-4.929-9.62-8.073-20.231-9.041-31.029       c-0.504-5.327-0.43-10.972,0.035-16.018c0.433-4.403,0.894-8.801,1.514-13.174c2.397-17.499,6.21-34.802,11.688-51.667       c10.775-33.712,28.28-65.902,52.463-92.655c24.158-26.771,54.838-47.373,87.721-60.56       c16.455-6.613,33.438-11.512,50.544-14.991c17.129-3.384,34.359-5.414,51.554-6.552h0.002l-12.472,6.558       c4.446-5.68,8.478-10.47,12.821-15.485c4.288-4.939,8.621-9.797,13.083-14.523c8.925-9.438,18.021-18.672,27.406-27.588       c18.818-17.771,38.412-34.673,58.879-50.452c40.756-31.779,84.624-59.523,130.624-83.005       c22.946-11.86,46.631-22.23,70.532-31.936c24.006-9.497,48.56-17.493,73.252-24.839       c49.353-14.362,100.853-23.885,152.667-17.844c0.864,0.1,1.484,0.884,1.383,1.749       C2448.281,2672.62,2447.856,2673.113,2447.317,2673.312z"
   id="path83" />
				</g>
				<g
   id="g85">
					<path
   style="fill:#000072;"
   d="M1920.585,2929.349c6.635-0.416,12.106-0.525,18.08-0.392c5.85,0.079,11.658,0.428,17.457,0.906       c11.6,0.907,23.107,2.675,34.546,4.89c11.411,2.357,22.738,5.277,33.868,8.973c11.096,3.795,22.013,8.226,32.628,13.374       c20.941,10.748,41.179,24.031,56.996,41.86c16.027,17.468,27.578,38.884,32.513,61.271c0.297,1.343-0.552,2.672-1.895,2.968       c-0.962,0.212-1.915-0.162-2.489-0.885l-0.035-0.046c-13.871-17.559-28.285-32.861-44.862-45.277       c-16.453-12.406-34.279-22.725-53.562-30.105c-9.578-3.805-19.414-7.039-29.442-9.695c-9.988-2.792-20.192-4.967-30.476-6.733       c-10.266-1.882-20.662-3.163-31.061-4.254c-5.204-0.452-10.414-0.913-15.602-1.241c-5.061-0.267-10.641-0.613-15.046-0.649       l-0.668-0.006c-9.663-0.081-17.429-7.98-17.349-17.643C1904.265,2937.441,1911.527,2929.943,1920.585,2929.349z"
   id="path84" />
				</g>
				<g
   id="g86">
					<path
   style="fill:#000072;"
   d="M1755.161,3248.838c-1.47-3.468-2.363-5.931-3.25-8.837c-0.927-2.794-1.603-5.605-2.274-8.416       c-1.367-5.612-2.133-11.307-2.798-17c-1.111-11.409-0.863-22.966,0.791-34.338c0.651-5.691,2.079-11.316,3.395-16.865       c1.77-5.497,3.376-10.972,6.018-16.124c4.742-10.409,11.591-19.895,20.092-27.485c1.643-1.467,4.164-1.324,5.631,0.319       c0.724,0.812,1.056,1.837,1.008,2.844l-0.016,0.327c-0.558,11.097-2.219,20.724-2.434,30.563       c-0.515,4.778-0.315,9.653-0.713,14.319c0.063,4.772-0.176,9.43,0.115,14.146c0.365,9.375,1.119,18.701,2.535,27.941       l1.05,6.917c0.472,2.273,0.828,4.58,1.23,6.855l2.511,12.874l0.352,1.797c1.848,9.474-4.333,18.651-13.806,20.499       C1766.343,3260.782,1758.313,3256.287,1755.161,3248.838z"
   id="path85" />
				</g>
				<g
   id="g87">
					<path
   style="fill:#000072;"
   d="M1929.567,3248.838c-1.47-3.468-2.363-5.931-3.25-8.837c-0.927-2.794-1.603-5.605-2.274-8.416       c-1.367-5.612-2.133-11.307-2.798-17c-1.111-11.409-0.863-22.966,0.791-34.338c0.651-5.691,2.079-11.316,3.395-16.865       c1.77-5.497,3.376-10.972,6.018-16.124c4.742-10.409,11.591-19.895,20.092-27.485c1.643-1.467,4.164-1.324,5.63,0.319       c0.725,0.812,1.057,1.837,1.01,2.844l-0.017,0.327c-0.557,11.097-2.218,20.724-2.433,30.563       c-0.515,4.778-0.315,9.653-0.714,14.319c0.065,4.772-0.175,9.43,0.116,14.146c0.365,9.375,1.119,18.701,2.535,27.941       l1.05,6.917c0.472,2.273,0.826,4.58,1.23,6.855l2.511,12.874l0.35,1.797c1.848,9.474-4.332,18.651-13.805,20.499       C1940.748,3260.782,1932.717,3256.287,1929.567,3248.838z"
   id="path86" />
				</g>
			</g>
		</g>
	</g>
</g>
</svg>
